<svg id="Layer_1" data-name="Layer 1" xmlns="http://www.w3.org/2000/svg" viewBox="0 0 330.5 471.5"><defs><style>.cls-1{fill:#ffb200;}.cls-1,.cls-2,.cls-3,.cls-4,.cls-5,.cls-6{fill-rule:evenodd;}.cls-2{fill:#e8c5a0;}.cls-3{fill:#ffddb8;}.cls-4{fill:#967366;}.cls-5{fill:#be2520;}.cls-6{fill:#d64540;}</style></defs><path class="cls-1" d="M140.4,397c-27.8,18-39.3,56.8-55.7,102.8H407c-16.3-46.1-27.6-85.2-55.7-102.8-48.2-30.2-77.2-37.4-105.6-37.8S188.2,365.9,140.4,397Z" transform="translate(-84.7 -28.2)"/><path class="cls-2" d="M205.9,243.7h79.8V359c0,39-79.8,43.4-79.8,0Z" transform="translate(-84.7 -28.2)"/><path class="cls-3" d="M245.8,93.1c193.8,0,115.2,256,0,256S52,93.1,245.8,93.1Z" transform="translate(-84.7 -28.2)"/><path class="cls-4" d="M351.3,199.5c10.5,39.3,4.6,36,18.6,6S349.6,46.1,249.1,46.1,107.4,145.6,121.5,200s18.1,42.1,22.8.2c11.2-98.7,57.1-78.6,99.1-79.1C313.8,120.3,324.5,99.5,351.3,199.5Z" transform="translate(-84.7 -28.2)"/><path class="cls-3" d="M370.3,181.2c7.1,1.6,9.9,16.1,6.2,32.4s-12.3,28.3-19.3,26.8-9.9-16.1-6.2-32.5S363.3,179.6,370.3,181.2Z" transform="translate(-84.7 -28.2)"/><path class="cls-3" d="M121.4,181.2c-7,1.6-9.8,16.1-6.2,32.4s12.3,28.3,19.4,26.8,9.8-16.1,6.2-32.5S128.5,179.6,121.4,181.2Z" transform="translate(-84.7 -28.2)"/><path class="cls-5" d="M364.6,138.8C272.2,29.7,137,101.4,117.4,179c.7-31.2,19.3-114.6,97.5-131.8S341.5,70.3,364.6,138.8Z" transform="translate(-84.7 -28.2)"/><path class="cls-6" d="M181,102.8C239.8,59.6,346,5.6,395.1,38.3s-3.9,86.8-29,109C345.5,102.8,268.1,58.9,181,102.8Z" transform="translate(-84.7 -28.2)"/></svg>