<svg id="Layer_1" data-name="Layer 1" xmlns="http://www.w3.org/2000/svg" viewBox="0 0 324.7 457.2"><defs><style>.cls-1{fill:#7d5f54;}.cls-1,.cls-2,.cls-3,.cls-4{fill-rule:evenodd;}.cls-2{fill:#c89bc4;}.cls-3{fill:#e8c5a0;}.cls-4{fill:#ffddb8;}</style></defs><path class="cls-1" d="M250,433.5c-219.1,0-195.7-390.3-3.1-390.3S469.1,433.5,250,433.5Z" transform="translate(-87.6 -42.8)"/><path class="cls-2" d="M143.7,396.4c-28,18.2-39.6,57.3-56.1,103.6H412.4c-16.4-46.4-27.8-85.8-56.1-103.6-48.6-30.4-77.8-37.6-106.4-38S191.9,365.1,143.7,396.4Z" transform="translate(-87.6 -42.8)"/><path class="cls-3" d="M209.8,241.9h80.4V358.2c0,39.2-80.4,43.7-80.4,0Z" transform="translate(-87.6 -42.8)"/><path class="cls-4" d="M250,90.2c195.3,0,116.1,258,0,258S54.7,90.2,250,90.2Z" transform="translate(-87.6 -42.8)"/><path class="cls-1" d="M356.3,197.4c11.5,39.4,4.6,36.3,18.8,6S354.5,42.8,253.2,42.8,110.5,143.1,124.7,197.9s16.1,42.2,23,.2C164.8,94.2,306.4,26.1,356.3,197.4Z" transform="translate(-87.6 -42.8)"/><path class="cls-4" d="M375.5,179c7.1,1.6,9.9,16.2,6.2,32.6s-12.4,28.6-19.5,27-9.9-16.2-6.2-32.7S368.4,177.4,375.5,179Z" transform="translate(-87.6 -42.8)"/><path class="cls-4" d="M124.6,179c-7.1,1.6-9.9,16.2-6.2,32.6s12.4,28.6,19.5,27,9.9-16.2,6.2-32.7S131.7,177.4,124.6,179Z" transform="translate(-87.6 -42.8)"/><path class="cls-1" d="M358.1,141.3c-10.6,13.4-30,22.5-53.4,27.9a273.5,273.5,0,0,0-14-65.6c4.1,26.9,7.1,47.1,8.8,66.7-23.3,4.6-50,5.6-75.4,3.3.6-15,1.8-31.2,3.3-50.9a252.7,252.7,0,0,0-8.4,50.4c-4.5-.5-9-1.1-13.3-1.8,2.7-19,6.7-38.8,12.1-64.8a274.1,274.1,0,0,0-17.2,63.9c-23.7-4.2-44.7-11.6-58.6-21.7C193.7,30.7,304.9,34.5,358.1,141.3Z" transform="translate(-87.6 -42.8)"/><path class="cls-1" d="M293.1,250.5h3.1c24-1.8,29.6-11.8,31.9-24.5s2.6-18.7,6.4-20,3.4-4,3.2-7.7-.4-4-5.1-5.5-24.1-2.9-39.5-2.1v3.7c12.1-.5,23.7.9,27.1,2.9,7.9,4.6,6.4,27,.3,38.1-4.4,7.8-16.5,11.7-27.4,11.7Zm-46.2-52.7c-5.3.1-27.3-5.7-42.8-7l-3.1-.2v3.7c12.5.6,25.5,3.3,30.1,9.5,7.7,10.2-4.6,35.1-16.3,40.6-3.7,1.8-8.6,2.6-13.8,2.6v3.5c21.2.3,28.6-13.7,31-18.4,4.6-8.7,3.2-20.8,15.1-20.8s10.7,11.8,15.2,20.6c2.5,4.6,9.6,18.9,30.8,18.6V247c-5.2,0-10.1-.8-13.7-2.6-11.7-5.5-24.1-30.4-16.4-40.6,4.6-6.2,17.6-8.9,30.1-9.5v-3.7l-3.1.2C276.1,191.9,259.4,197.5,246.9,197.8ZM201,190.6c-15.3-.8-35.7.9-39.4,2.1s-4.9,1.9-5.2,5.5.4,6.8,3.2,7.7,3.9,6.1,6.4,20,7.9,22.7,31.9,24.5H201V247c-10.9,0-23-3.9-27.3-11.7-6.2-11.1-7.7-33.5.2-38.1,3.4-2,15.1-3.4,27.1-2.9Z" transform="translate(-87.6 -42.8)"/></svg>