<svg id="Layer_1" data-name="Layer 1" xmlns="http://www.w3.org/2000/svg" viewBox="0 0 337.7 455.2"><defs><style>.cls-1{fill:#48b1d4;}.cls-1,.cls-2,.cls-3,.cls-4,.cls-5,.cls-6,.cls-7,.cls-8{fill-rule:evenodd;}.cls-2{fill:#e8c5a0;}.cls-3{fill:#ffddb8;}.cls-4{fill:#967366;}.cls-5{fill:#7d5f54;}.cls-6{fill:#21445c;}.cls-7{fill:#6bcced;}.cls-8{fill:#207e9e;}</style></defs><path class="cls-1" d="M139.6,392.3C110.4,411.2,98.4,451.8,81.3,500H419c-17-48.3-28.9-89.3-58.4-107.7-50.4-31.6-80.8-39.2-110.6-39.6S189.7,359.7,139.6,392.3Z" transform="translate(-81.3 -44.8)"/><path class="cls-2" d="M208.3,231.6h83.6V352.5c0,40.8-83.6,45.5-83.6,0Z" transform="translate(-81.3 -44.8)"/><path class="cls-3" d="M250.1,87.8c177.1,0,105.3,233.9,0,233.9S73,87.8,250.1,87.8Z" transform="translate(-81.3 -44.8)"/><path class="cls-4" d="M345.7,185c9.6,36.1,4.2,33,17,5.5S344.1,44.8,252.2,44.8s-129.6,91-116.8,140.7,16.6,38.5,20.9.2c10.3-90.3,52.3-71.9,90.6-72.3C311.4,112.6,321.1,93.6,345.7,185Z" transform="translate(-81.3 -44.8)"/><path class="cls-3" d="M363.9,168.3c6.4,1.4,9,14.7,5.6,29.6s-11.2,25.9-17.6,24.5-9-14.7-5.7-29.7S357.4,166.9,363.9,168.3Z" transform="translate(-81.3 -44.8)"/><path class="cls-3" d="M136.4,168.3c-6.4,1.4-8.9,14.7-5.6,29.6s11.2,25.9,17.7,24.5,8.9-14.7,5.6-29.7S142.9,166.9,136.4,168.3Z" transform="translate(-81.3 -44.8)"/><path class="cls-5" d="M294.1,227.7l3-.2c23-1.7,28.3-11.3,30.5-23.4s2.4-17.9,6.1-19.1,3.3-3.9,3.1-7.3-.4-3.8-4.9-5.3-23.1-2.8-37.8-2v3.5c11.6-.5,22.7.8,26,2.8,7.5,4.4,6.1,25.8.2,36.4-4.2,7.4-15.7,11.2-26.2,11.2Zm-44.2-50.4c-5,.1-26-5.5-40.9-6.7l-2.9-.2v3.5c11.9.6,24.3,3.2,28.8,9.1,7.3,9.7-4.5,33.6-15.7,38.9a32.6,32.6,0,0,1-13.1,2.4v3.4c20.3.3,27.3-13.2,29.6-17.7,4.3-8.3,3-19.8,14.4-19.8s10.3,11.3,14.6,19.6c2.4,4.5,9.2,18.2,29.4,17.9v-3.4a32.6,32.6,0,0,1-13.1-2.4c-11.2-5.3-23-29.2-15.7-38.9,4.5-5.9,16.9-8.5,28.8-9.1v-3.5l-2.9.2C277.9,171.7,261.9,177,249.9,177.3Zm-43.8-6.9c-14.7-.8-34.2.9-37.8,2s-4.6,1.8-4.9,5.3.4,6.4,3.1,7.3,3.7,5.9,6.1,19.1,7.5,21.7,30.5,23.4l3,.2v-3.4c-10.4,0-22-3.8-26.2-11.2-5.8-10.6-7.3-32,.2-36.4,3.3-2,14.5-3.3,26-2.8Z" transform="translate(-81.3 -44.8)"/><path class="cls-6" d="M241.1,453l-2.7,47h23.7l-2.8-47,29.6-87c-27.7-.6-49.9-.5-77.4,0Z" transform="translate(-81.3 -44.8)"/><polygon class="cls-7" points="127 290.4 100.5 323.6 95.7 386.6 169.1 320.7 127 290.4"/><polygon class="cls-7" points="210.8 290.4 237.3 324.4 242 386.6 169.1 320.7 210.8 290.4"/><polygon class="cls-8" points="237.3 324.4 242 386.6 198.7 347.5 247.8 397.5 237.3 324.4"/><polygon class="cls-8" points="100.4 324.4 95.7 386.6 139 347.5 90 397.5 100.4 324.4"/></svg>