<svg id="Layer_1" data-name="Layer 1" xmlns="http://www.w3.org/2000/svg" viewBox="0 0 318.2 486.4"><defs><style>.cls-1{fill:#5ea376;}.cls-1,.cls-3,.cls-4,.cls-6,.cls-7{fill-rule:evenodd;}.cls-2,.cls-3{fill:#90d1a7;}.cls-4{fill:#e8c5a0;}.cls-5,.cls-7{fill:#7d5f54;}.cls-6{fill:#ffddb8;}</style></defs><path class="cls-1" d="M145.8,397.9C118.4,415.7,107,454,90.9,499.4H409.1c-16-45.5-27.2-84.1-55-101.5-47.5-29.8-76.2-36.9-104.2-37.3S193,367.2,145.8,397.9Z" transform="translate(-90.9 -13)"/><circle class="cls-2" cx="128.5" cy="372.7" r="31.4"/><path class="cls-3" d="M281,415.4A31.5,31.5,0,1,0,249.5,384,31.5,31.5,0,0,0,281,415.4Z" transform="translate(-90.9 -13)"/><path class="cls-4" d="M210.6,246.5h78.8V360.4c0,38.5-78.8,42.9-78.8,0Z" transform="translate(-90.9 -13)"/><ellipse class="cls-5" cx="162.9" cy="83.3" rx="82.6" ry="83.3"/><path class="cls-6" d="M250,111c166.8,0,99.2,220.4,0,220.4S83.1,111,250,111Z" transform="translate(-90.9 -13)"/><path class="cls-7" d="M296.6,133.2c26.9,11.4,37.9,46.1,44.2,69.4,9.1,33.9,3.9,31,16,5.2S339.3,70.6,252.8,70.6,130.8,156.2,142.9,203s12.1,35.7,19.7.2C182,111.9,250.5,151.9,296.6,133.2Z" transform="translate(-90.9 -13)"/><path class="cls-6" d="M357.2,186.9c6.1,1.3,8.4,13.8,5.3,27.9s-10.6,24.3-16.7,23-8.4-13.9-5.3-27.9S351.1,185.5,357.2,186.9Z" transform="translate(-90.9 -13)"/><path class="cls-6" d="M142.9,186.9c-6.1,1.3-8.5,13.8-5.4,27.9s10.6,24.3,16.7,23,8.5-13.9,5.3-27.9S148.9,185.5,142.9,186.9Z" transform="translate(-90.9 -13)"/><path class="cls-7" d="M193.1,89.6c-15.1,41.5,49.6,93.8,107.6,119.2,24.2,10.6,59.9,8.7,35.5,57.1,25.4-27.9,18.5-43.9,8.4-59.5-6.5-10.1-.5-51.5-7.3-59.2C287,90.3,249.4,49.4,193.1,89.6Z" transform="translate(-90.9 -13)"/><path class="cls-7" d="M294.8,54.2c15.1,41.5-12.6,74.9-70.5,100.3-24.3,10.6-83.9,63-59.4,111.4-25.4-27.9-12.7-66.9-2.7-82.5,6.6-10.1-5.2-28.5,1.6-36.2C214.1,90.3,238.5,14,294.8,54.2Z" transform="translate(-90.9 -13)"/></svg>